# ProBuilder 6.0.5
# https://unity3d.com/unity/features/worldbuilding/probuilder
# 06.06.2025 20:29:15

mtllib ./Display7.mtl
o Display7

g Display7
v 0.25 0.008520126 1.743965
v -0.25 0.008520126 1.743965
v 0.25 5.030805 1.743965
v -0.25 5.030805 1.743965
v -0.25 0.008520126 -1.672258
v -0.25 5.030805 -1.672258
v 0.25 0.008520126 -1.672258
v 0.25 5.030805 -1.672258

vt 0.5 -4.022285
vt 0 -4.022285
vt 0.5 1
vt 0 1
vt 3.416223 -4.022285
vt 3.416223 1
vt 0 -2.416223
vt 0.5 -2.416223

vn 0 -2.220446E-17 1
vn -1 0 0
vn 0 2.220446E-17 -1
vn 1 0 0
vn 0 1 2.220446E-17
vn 0 -1 -2.220446E-17

usemtl ProBuilderDefault
f 3/3/1 4/4/1 2/2/1 1/1/1
f 4/6/2 6/4/2 5/2/2 2/5/2
f 6/3/3 8/4/3 7/2/3 5/1/3
f 8/6/4 3/4/4 1/2/4 7/5/4
f 8/7/5 6/8/5 4/3/5 3/4/5
f 1/3/6 2/4/6 5/7/6 7/8/6

g E
v -0.2704079 0.4869655 -1.143562
v -0.4441335 0.4869658 -1.143562
v -0.270408 0.6593044 -0.9372495
v -0.4441335 0.6593044 -0.9372495
v -0.270408 2.005122 -0.8195058
v -0.4441335 2.005122 -0.8195058
v -0.2704079 2.37525 -0.9783581
v -0.4441335 2.375248 -0.9783583
v -0.2704079 2.1763 -1.186998
v -0.4441335 2.1763 -1.186998
v -0.270408 0.8304822 -1.304742
v -0.4441335 0.8304823 -1.304742
v -0.2704081 1.431106 -1.06096
v -0.4441336 1.431106 -1.06096

vt -0.6282926 -0.1665783
vt -0.6282924 0.007147449
vt -0.3594705 -0.1665781
vt -0.3594704 0.007147426
vt -0.6832215 -0.1665775
vt -0.6832214 0.007148016
vt 0.6677374 -0.1665776
vt 0.6677369 0.007148004
vt 0.5065189 -0.1665782
vt 0.5065185 0.007147396
vt 0.9092946 -0.1665782
vt 0.9092929 0.007147413
vt -0.7559229 -0.1665826
vt -0.7559215 0.007143022
vt -0.4676319 -0.1665826
vt -0.4676315 0.007142989
vt -0.8062345 -0.1665776
vt -0.8062341 0.007147987
vt 0.544724 -0.1665776
vt 0.544724 0.007147999
vt 0.3666382 -0.1665776
vt 0.3666382 0.007147921
vt 0.746089 -0.1665778
vt 0.7460888 0.00714796
vt -0.8728858 -0.01755149
vt 0.07486146 -0.01755149
vt -0.6832215 0.1729551
vt 0.8728855 -0.01755142
vt -0.07486117 -0.01755142
vt 0.6832214 0.1729552
vt 0.6677374 0.1729553
vt -0.6677369 0.1729552
vt 1.022611 -0.01755142
vt -1.022609 -0.01755142
vt 0.8062346 -0.208058
vt -0.8062341 -0.208058
vt -0.544724 -0.2080581
vt 0.544724 -0.208058

vn -1.149073E-06 -0.9763137 -0.2163599
vn -3.29121E-07 -0.4627311 0.8864987
vn -6.693226E-07 0.1584009 0.987375
vn -9.200774E-06 0.9796914 0.2005112
vn -2.42339E-06 0.4333606 -0.9012206
vn -8.919405E-08 -0.1748194 -0.9846005
vn 1 2.281068E-07 4.594923E-07
vn -1 -1.735612E-08 1.250947E-07

usemtl ProBuilderDefault
f 9/33/13 21/34/13 11/35/13
f 11/35/13 21/34/13 13/39/13
f 13/39/13 21/34/13 15/41/13
f 15/41/13 21/34/13 17/43/13
f 17/43/13 21/34/13 19/45/13
f 19/45/13 21/34/13 9/33/13
f 12/38/14 22/37/14 10/36/14
f 14/40/14 22/37/14 12/38/14
f 16/42/14 22/37/14 14/40/14
f 18/44/14 22/37/14 16/42/14
f 20/46/14 22/37/14 18/44/14
f 10/36/14 22/37/14 20/46/14
f 12/12/8 10/10/7 9/9/7
f 9/9/7 11/11/8 12/12/8
f 14/16/9 12/14/8 11/13/8
f 11/13/8 13/15/9 14/16/9
f 16/20/10 14/18/9 13/17/9
f 13/17/9 15/19/10 16/20/10
f 18/24/11 16/22/10 15/21/10
f 15/21/10 17/23/11 18/24/11
f 20/28/12 18/26/11 17/25/11
f 17/25/11 19/27/12 20/28/12
f 10/32/7 20/30/12 19/29/12
f 19/29/12 9/31/7 10/32/7

g C
v -0.2704077 0.485153 0.8959736
v -0.4441335 0.4851532 0.8959736
v -0.2704079 0.6574919 1.102286
v -0.4441335 0.6574918 1.102286
v -0.2704079 2.00331 1.220029
v -0.4441335 2.00331 1.220029
v -0.2704077 2.373439 1.061177
v -0.4441335 2.373436 1.061177
v -0.2704078 2.174488 0.852537
v -0.4441335 2.174488 0.852537
v -0.2704079 0.8286698 0.7347932
v -0.4441335 0.82867 0.7347932
v -0.270408 1.429294 0.9785753
v -0.4441335 1.429294 0.9785753

vt 0.7443394 -0.1665798
vt 0.7443396 0.00714606
vt 1.013162 -0.1665796
vt 1.013162 0.007146038
vt -0.6832221 -0.1665777
vt -0.6832221 0.007147956
vt 0.6677372 -0.1665777
vt 0.6677372 0.007147944
vt -0.4096042 -0.1665777
vt -0.4096042 0.007147944
vt -0.006827595 -0.1665778
vt -0.006829696 0.007147961
vt -2.035856 -0.1665709
vt -2.035854 0.007154897
vt -1.747564 -0.1665708
vt -1.747564 0.007154864
vt -0.806235 -0.1665777
vt -0.8062345 0.007147928
vt 0.5447239 -0.1665777
vt 0.5447237 0.00714794
vt 1.339079 -0.1665771
vt 1.339078 0.007148571
vt 1.718529 -0.1665772
vt 1.718529 0.00714861
vt -0.8728858 1.919354
vt 0.07486193 1.919354
vt -0.6832214 2.109861
vt 0.8728855 1.919354
vt -0.07486165 1.919354
vt 0.6832214 2.109861
vt 0.6677379 2.109861
vt -0.6677379 2.109861
vt 1.022613 1.919354
vt -1.02261 1.919354
vt 0.8062351 1.728848
vt -0.8062345 1.728848
vt -0.5447239 1.728848
vt 0.5447237 1.728848

vn -1.290129E-06 -0.9763137 -0.2163604
vn -1.974725E-07 -0.4627314 0.8864985
vn -3.121738E-14 0.1584006 0.987375
vn -1.079001E-05 0.9796916 0.2005104
vn -2.908058E-06 0.4333598 -0.901221
vn -2.67582E-07 -0.1748194 -0.9846005
vn 1 2.689466E-07 7.142814E-07
vn -1 -1.73561E-08 1.250944E-07

usemtl ProBuilderDefault
f 23/71/21 35/72/21 25/73/21
f 25/73/21 35/72/21 27/77/21
f 27/77/21 35/72/21 29/79/21
f 29/79/21 35/72/21 31/81/21
f 31/81/21 35/72/21 33/83/21
f 33/83/21 35/72/21 23/71/21
f 26/76/22 36/75/22 24/74/22
f 28/78/22 36/75/22 26/76/22
f 30/80/22 36/75/22 28/78/22
f 32/82/22 36/75/22 30/80/22
f 34/84/22 36/75/22 32/82/22
f 24/74/22 36/75/22 34/84/22
f 26/50/16 24/48/15 23/47/15
f 23/47/15 25/49/16 26/50/16
f 28/54/17 26/52/16 25/51/16
f 25/51/16 27/53/17 28/54/17
f 30/58/18 28/56/17 27/55/17
f 27/55/17 29/57/18 30/58/18
f 32/62/19 30/60/18 29/59/18
f 29/59/18 31/61/19 32/62/19
f 34/66/20 32/64/19 31/63/19
f 31/63/19 33/65/20 34/66/20
f 24/70/15 34/68/20 33/67/20
f 33/67/20 23/69/15 24/70/15

g F
v -0.2704078 2.686258 -0.9511485
v -0.4441335 2.686258 -0.9511485
v -0.2704079 2.858597 -0.7448364
v -0.4441335 2.858597 -0.7448364
v -0.2704079 4.204415 -0.6270926
v -0.4441335 4.204414 -0.6270926
v -0.2704079 4.574542 -0.7859449
v -0.4441335 4.57454 -0.7859451
v -0.2704079 4.375593 -0.994585
v -0.4441335 4.375592 -0.9945851
v -0.2704079 3.029774 -1.112329
v -0.4441335 3.029774 -1.112329
v -0.270408 3.630399 -0.8685468
v -0.4441335 3.630398 -0.8685468

vt 0.9293197 -0.1665768
vt 0.9293198 0.007148946
vt 1.198142 -0.1665767
vt 1.198142 0.007148923
vt 1.524472 -0.1665776
vt 1.524472 0.007147991
vt 2.875431 -0.1665776
vt 2.87543 0.007148009
vt 2.451653 -0.1665796
vt 2.451653 0.007146045
vt 2.854429 -0.1665796
vt 2.854428 0.007146033
vt -2.412907 -0.1665933
vt -2.412906 0.007132414
vt -2.124616 -0.1665932
vt -2.124616 0.00713238
vt -3.013928 -0.1665776
vt -3.013927 0.007147963
vt -1.662969 -0.1665776
vt -1.662969 0.007147974
vt -1.542649 -0.1665774
vt -1.542649 0.0071482
vt -1.163198 -0.1665775
vt -1.163198 0.00714824
vt 1.334807 -0.01755151
vt 2.282555 -0.01755151
vt 1.524472 0.1729551
vt -1.334807 -0.01755142
vt -2.282554 -0.01755142
vt -1.524472 0.1729552
vt 2.875431 0.1729553
vt -2.87543 0.1729552
vt 3.230305 -0.01755141
vt -3.230303 -0.01755142
vt 3.013928 -0.208058
vt -3.013927 -0.208058
vt 1.662969 -0.2080581
vt -1.662969 -0.208058

vn -1.219601E-06 -0.9763138 -0.2163598
vn -2.632966E-07 -0.462731 0.8864987
vn -6.69322E-07 0.1584008 0.9873749
vn -9.200775E-06 0.9796914 0.2005114
vn -2.42339E-06 0.4333607 -0.9012206
vn -1.783881E-07 -0.1748194 -0.9846005
vn 1 2.383166E-07 5.2319E-07
vn -1 -1.735612E-08 1.250947E-07

usemtl ProBuilderDefault
f 37/109/29 49/110/29 39/111/29
f 39/111/29 49/110/29 41/115/29
f 41/115/29 49/110/29 43/117/29
f 43/117/29 49/110/29 45/119/29
f 45/119/29 49/110/29 47/121/29
f 47/121/29 49/110/29 37/109/29
f 40/114/30 50/113/30 38/112/30
f 42/116/30 50/113/30 40/114/30
f 44/118/30 50/113/30 42/116/30
f 46/120/30 50/113/30 44/118/30
f 48/122/30 50/113/30 46/120/30
f 38/112/30 50/113/30 48/122/30
f 40/88/24 38/86/23 37/85/23
f 37/85/23 39/87/24 40/88/24
f 42/92/25 40/90/24 39/89/24
f 39/89/24 41/91/25 42/92/25
f 44/96/26 42/94/25 41/93/25
f 41/93/25 43/95/26 44/96/26
f 46/100/27 44/98/26 43/97/26
f 43/97/26 45/99/27 46/100/27
f 48/104/28 46/102/27 45/101/27
f 45/101/27 47/103/28 48/104/28
f 38/108/23 48/106/28 47/105/28
f 47/105/28 37/107/23 38/108/23

g B
v -0.2704076 2.684445 1.088387
v -0.4441335 2.684445 1.088387
v -0.2704078 2.856784 1.294699
v -0.4441335 2.856784 1.294699
v -0.2704078 4.202603 1.412443
v -0.4441335 4.202603 1.412443
v -0.2704077 4.572731 1.25359
v -0.4441335 4.572729 1.25359
v -0.2704078 4.37378 1.04495
v -0.4441334 4.37378 1.04495
v -0.2704078 3.027962 0.9272063
v -0.4441334 3.027962 0.9272063
v -0.2704079 3.628587 1.170989
v -0.4441335 3.628586 1.170988

vt 2.30195 -0.1665783
vt 2.30195 0.007147557
vt 2.570773 -0.1665781
vt 2.570773 0.007147534
vt 1.524471 -0.1665777
vt 1.524471 0.007147931
vt 2.87543 -0.1665777
vt 2.87543 0.007147949
vt 1.535532 -0.1665777
vt 1.535532 0.007147949
vt 1.938308 -0.1665779
vt 1.938306 0.007147937
vt -3.692843 -0.1665841
vt -3.692842 0.007141642
vt -3.404552 -0.166584
vt -3.404551 0.007141609
vt -3.013928 -0.1665778
vt -3.013928 0.007147903
vt -1.662969 -0.1665777
vt -1.662969 0.007147915
vt -0.570208 -0.1665753
vt -0.5702083 0.007150323
vt -0.1907573 -0.1665755
vt -0.1907575 0.007150363
vt 1.334807 1.919354
vt 2.282555 1.919354
vt 1.524472 2.109861
vt -1.334807 1.919354
vt -2.282555 1.919354
vt -1.524472 2.109861
vt 2.875431 2.109861
vt -2.875431 2.109861
vt 3.230306 1.919354
vt -3.230304 1.919354
vt 3.013928 1.728848
vt -3.013928 1.728848
vt 1.662969 1.728848
vt -1.662969 1.728848

vn -1.501715E-06 -0.9763137 -0.2163605
vn -2.632967E-07 -0.4627314 0.8864985
vn 0 0.1584004 0.987375
vn -1.079001E-05 0.9796915 0.2005107
vn -2.908058E-06 0.4333599 -0.901221
vn -5.351641E-07 -0.1748194 -0.9846005
vn 1 2.791564E-07 7.77979E-07
vn -1 -1.73561E-08 1.250944E-07

usemtl ProBuilderDefault
f 51/147/37 63/148/37 53/149/37
f 53/149/37 63/148/37 55/153/37
f 55/153/37 63/148/37 57/155/37
f 57/155/37 63/148/37 59/157/37
f 59/157/37 63/148/37 61/159/37
f 61/159/37 63/148/37 51/147/37
f 54/152/38 64/151/38 52/150/38
f 56/154/38 64/151/38 54/152/38
f 58/156/38 64/151/38 56/154/38
f 60/158/38 64/151/38 58/156/38
f 62/160/38 64/151/38 60/158/38
f 52/150/38 64/151/38 62/160/38
f 54/126/32 52/124/31 51/123/31
f 51/123/31 53/125/32 54/126/32
f 56/130/33 54/128/32 53/127/32
f 53/127/32 55/129/33 56/130/33
f 58/134/34 56/132/33 55/131/33
f 55/131/33 57/133/34 58/134/34
f 60/138/35 58/136/34 57/135/34
f 57/135/34 59/137/35 60/138/35
f 62/142/36 60/140/35 59/139/35
f 59/139/35 61/141/36 62/142/36
f 52/146/31 62/144/36 61/143/36
f 61/143/36 51/145/31 52/146/31

g G
v -0.2704076 2.536645 -0.8901927
v -0.4441335 2.536645 -0.8901925
v -0.2704078 2.346138 -0.7005284
v -0.4441335 2.346138 -0.7005284
v -0.2704078 2.346139 0.6504312
v -0.4441335 2.346139 0.6504312
v -0.2704077 2.536645 1.005306
v -0.4441335 2.536645 1.005304
v -0.2704078 2.727152 0.7889285
v -0.4441334 2.727152 0.788928
v -0.2704078 2.727152 -0.562031
v -0.4441334 2.727152 -0.5620307
v -0.2704079 2.536645 0.05755544
v -0.4441335 2.536645 0.05755496

vt 2.30195 -0.1665783
vt 2.30195 0.007147557
vt 2.570773 -0.1665781
vt 2.570773 0.007147534
vt 1.524471 -0.1665777
vt 1.524471 0.007147931
vt 2.87543 -0.1665777
vt 2.87543 0.007147949
vt 1.535532 -0.1665777
vt 1.535532 0.007147949
vt 1.938308 -0.1665779
vt 1.938306 0.007147937
vt -3.692843 -0.1665841
vt -3.692842 0.007141642
vt -3.404552 -0.166584
vt -3.404551 0.007141609
vt -3.013928 -0.1665778
vt -3.013928 0.007147903
vt -1.662969 -0.1665777
vt -1.662969 0.007147915
vt -0.570208 -0.1665753
vt -0.5702083 0.007150323
vt -0.1907573 -0.1665755
vt -0.1907575 0.007150363
vt 1.334807 1.919354
vt 2.282555 1.919354
vt 1.524472 2.109861
vt -1.334807 1.919354
vt -2.282555 1.919354
vt -1.524472 2.109861
vt 2.875431 2.109861
vt -2.875431 2.109861
vt 3.230306 1.919354
vt -3.230304 1.919354
vt 3.013928 1.728848
vt -3.013928 1.728848
vt 1.662969 1.728848
vt -1.662969 1.728848

vn -1.501715E-06 0.1304458 -0.9914555
vn -2.632967E-07 -0.9234548 -0.3837071
vn 0 -0.9698122 0.2438531
vn -1.079001E-05 -0.1143619 0.9934391
vn -2.908058E-06 0.9355614 0.3531642
vn -5.351641E-07 0.9656172 -0.2599678
vn 1 -7.506885E-07 3.458994E-07
vn -1 -1.261311E-07 -6.387352E-09

usemtl ProBuilderDefault
f 65/185/45 77/186/45 67/187/45
f 67/187/45 77/186/45 69/191/45
f 69/191/45 77/186/45 71/193/45
f 71/193/45 77/186/45 73/195/45
f 73/195/45 77/186/45 75/197/45
f 75/197/45 77/186/45 65/185/45
f 68/190/46 78/189/46 66/188/46
f 70/192/46 78/189/46 68/190/46
f 72/194/46 78/189/46 70/192/46
f 74/196/46 78/189/46 72/194/46
f 76/198/46 78/189/46 74/196/46
f 66/188/46 78/189/46 76/198/46
f 68/164/40 66/162/39 65/161/39
f 65/161/39 67/163/40 68/164/40
f 70/168/41 68/166/40 67/165/40
f 67/165/40 69/167/41 70/168/41
f 72/172/42 70/170/41 69/169/41
f 69/169/41 71/171/42 72/172/42
f 74/176/43 72/174/42 71/173/42
f 71/173/42 73/175/43 74/176/43
f 76/180/44 74/178/43 73/177/43
f 73/177/43 75/179/44 76/180/44
f 66/184/39 76/182/44 75/181/44
f 75/181/44 65/183/39 66/184/39

g D
v -0.2704076 0.4406456 -1.077193
v -0.4441335 0.4406456 -1.077193
v -0.2704078 0.2501385 -0.8875284
v -0.4441335 0.2501385 -0.8875284
v -0.2704078 0.250139 0.4634311
v -0.4441335 0.250139 0.4634311
v -0.2704077 0.4406456 0.8183062
v -0.4441335 0.4406456 0.8183038
v -0.2704078 0.6311522 0.6019285
v -0.4441334 0.6311522 0.601928
v -0.2704078 0.6311522 -0.7490311
v -0.4441334 0.6311522 -0.7490307
v -0.2704079 0.4406456 -0.1294446
v -0.4441335 0.4406456 -0.1294451

vt 2.30195 -0.1665783
vt 2.30195 0.007147557
vt 2.570773 -0.1665781
vt 2.570773 0.007147534
vt 1.524471 -0.1665777
vt 1.524471 0.007147931
vt 2.87543 -0.1665777
vt 2.87543 0.007147949
vt 1.535532 -0.1665777
vt 1.535532 0.007147949
vt 1.938308 -0.1665779
vt 1.938306 0.007147937
vt -3.692843 -0.1665841
vt -3.692842 0.007141642
vt -3.404552 -0.166584
vt -3.404551 0.007141609
vt -3.013928 -0.1665778
vt -3.013928 0.007147903
vt -1.662969 -0.1665777
vt -1.662969 0.007147915
vt -0.570208 -0.1665753
vt -0.5702083 0.007150323
vt -0.1907573 -0.1665755
vt -0.1907575 0.007150363
vt 1.334807 1.919354
vt 2.282555 1.919354
vt 1.524472 2.109861
vt -1.334807 1.919354
vt -2.282555 1.919354
vt -1.524472 2.109861
vt 2.875431 2.109861
vt -2.875431 2.109861
vt 3.230306 1.919354
vt -3.230304 1.919354
vt 3.013928 1.728848
vt -3.013928 1.728848
vt 1.662969 1.728848
vt -1.662969 1.728848

vn -1.501715E-06 0.1304458 -0.9914555
vn -2.632967E-07 -0.9234548 -0.3837071
vn 0 -0.9698122 0.2438531
vn -1.079001E-05 -0.1143619 0.9934391
vn -2.908058E-06 0.9355614 0.3531642
vn -5.351641E-07 0.9656172 -0.2599678
vn 1 -7.506885E-07 3.458994E-07
vn -1 -1.261311E-07 -6.387352E-09

usemtl ProBuilderDefault
f 79/223/53 91/224/53 81/225/53
f 81/225/53 91/224/53 83/229/53
f 83/229/53 91/224/53 85/231/53
f 85/231/53 91/224/53 87/233/53
f 87/233/53 91/224/53 89/235/53
f 89/235/53 91/224/53 79/223/53
f 82/228/54 92/227/54 80/226/54
f 84/230/54 92/227/54 82/228/54
f 86/232/54 92/227/54 84/230/54
f 88/234/54 92/227/54 86/232/54
f 90/236/54 92/227/54 88/234/54
f 80/226/54 92/227/54 90/236/54
f 82/202/48 80/200/47 79/199/47
f 79/199/47 81/201/48 82/202/48
f 84/206/49 82/204/48 81/203/48
f 81/203/48 83/205/49 84/206/49
f 86/210/50 84/208/49 83/207/49
f 83/207/49 85/209/50 86/210/50
f 88/214/51 86/212/50 85/211/50
f 85/211/50 87/213/51 88/214/51
f 90/218/52 88/216/51 87/215/51
f 87/215/51 89/217/52 90/218/52
f 80/222/47 90/220/52 89/219/52
f 89/219/52 79/221/47 80/222/47

g A
v -0.2704076 4.590646 -0.7061927
v -0.4441335 4.590646 -0.7061925
v -0.2704078 4.400139 -0.5165284
v -0.4441335 4.400139 -0.5165284
v -0.2704078 4.400139 0.8344312
v -0.4441335 4.400139 0.8344312
v -0.2704077 4.590646 1.189306
v -0.4441335 4.590646 1.189304
v -0.2704078 4.781153 0.9729285
v -0.4441334 4.781153 0.972928
v -0.2704078 4.781153 -0.378031
v -0.4441334 4.781153 -0.3780307
v -0.2704079 4.590646 0.2415555
v -0.4441335 4.590646 0.241555

vt 2.30195 -0.1665783
vt 2.30195 0.007147557
vt 2.570773 -0.1665781
vt 2.570773 0.007147534
vt 1.524471 -0.1665777
vt 1.524471 0.007147931
vt 2.87543 -0.1665777
vt 2.87543 0.007147949
vt 1.535532 -0.1665777
vt 1.535532 0.007147949
vt 1.938308 -0.1665779
vt 1.938306 0.007147937
vt -3.692843 -0.1665841
vt -3.692842 0.007141642
vt -3.404552 -0.166584
vt -3.404551 0.007141609
vt -3.013928 -0.1665778
vt -3.013928 0.007147903
vt -1.662969 -0.1665777
vt -1.662969 0.007147915
vt -0.570208 -0.1665753
vt -0.5702083 0.007150323
vt -0.1907573 -0.1665755
vt -0.1907575 0.007150363
vt 1.334807 1.919354
vt 2.282555 1.919354
vt 1.524472 2.109861
vt -1.334807 1.919354
vt -2.282555 1.919354
vt -1.524472 2.109861
vt 2.875431 2.109861
vt -2.875431 2.109861
vt 3.230306 1.919354
vt -3.230304 1.919354
vt 3.013928 1.728848
vt -3.013928 1.728848
vt 1.662969 1.728848
vt -1.662969 1.728848

vn -1.501715E-06 0.1304458 -0.9914555
vn -2.632967E-07 -0.9234548 -0.3837071
vn 0 -0.9698122 0.2438531
vn -1.079001E-05 -0.1143619 0.9934391
vn -2.908058E-06 0.9355614 0.3531642
vn -5.351641E-07 0.9656172 -0.2599678
vn 1 -7.506885E-07 3.458994E-07
vn -1 -1.261311E-07 -6.387352E-09

usemtl ProBuilderDefault
f 93/261/61 105/262/61 95/263/61
f 95/263/61 105/262/61 97/267/61
f 97/267/61 105/262/61 99/269/61
f 99/269/61 105/262/61 101/271/61
f 101/271/61 105/262/61 103/273/61
f 103/273/61 105/262/61 93/261/61
f 96/266/62 106/265/62 94/264/62
f 98/268/62 106/265/62 96/266/62
f 100/270/62 106/265/62 98/268/62
f 102/272/62 106/265/62 100/270/62
f 104/274/62 106/265/62 102/272/62
f 94/264/62 106/265/62 104/274/62
f 96/240/56 94/238/55 93/237/55
f 93/237/55 95/239/56 96/240/56
f 98/244/57 96/242/56 95/241/56
f 95/241/56 97/243/57 98/244/57
f 100/248/58 98/246/57 97/245/57
f 97/245/57 99/247/58 100/248/58
f 102/252/59 100/250/58 99/249/58
f 99/249/58 101/251/59 102/252/59
f 104/256/60 102/254/59 101/253/59
f 101/253/59 103/255/60 104/256/60
f 94/260/55 104/258/60 103/257/60
f 103/257/60 93/259/55 94/260/55

g DP
v -0.255 0.28 1.337
v -0.455 0.28 1.337
v -0.255 0.3086475 1.425168
v -0.455 0.3086474 1.425168
v -0.255 0.3836475 1.479658
v -0.455 0.3836474 1.479658
v -0.255 0.4763526 1.479658
v -0.455 0.4763525 1.479658
v -0.255 0.5513526 1.425168
v -0.455 0.5513526 1.425168
v -0.255 0.58 1.337
v -0.455 0.58 1.337
v -0.255 0.5513526 1.248832
v -0.455 0.5513526 1.248832
v -0.255 0.4763526 1.194342
v -0.455 0.4763526 1.194342
v -0.255 0.3836474 1.194342
v -0.455 0.3836474 1.194342
v -0.255 0.3086475 1.248832
v -0.455 0.3086474 1.248832
v -0.255 0.43 1.337
v -0.455 0.43 1.337

vt -0.04635255 -0.1
vt -0.04635255 0.1
vt 0.04635255 -0.1
vt 0.04635255 0.1
vt -0.15 0
vt 0 0
vt -0.1213526 0.08816779
vt 0.15 0
vt 0.1213526 0.08816779
vt -0.04635255 0.1426585
vt 0.04635255 0.1426585
vt 0.1213526 -0.08816777
vt -0.1213526 -0.08816777
vt 0.04635257 -0.1426585
vt -0.04635257 -0.1426585

vn 1.192093E-07 -1 -3.133601E-08
vn 9.644234E-08 -0.8090171 0.5877852
vn 3.68377E-08 -0.3090171 0.9510565
vn -3.68377E-08 0.3090171 0.9510565
vn -9.644234E-08 0.8090171 0.5877852
vn -1.192093E-07 1 -6.267204E-08
vn -9.644234E-08 0.8090171 -0.5877852
vn -3.68377E-08 0.3090171 -0.9510565
vn 3.68377E-08 -0.309017 -0.9510565
vn 9.644234E-08 -0.8090171 -0.5877853
vn 1 1.192093E-07 2.646978E-24
vn -1 -1.192093E-07 -2.646978E-24

usemtl ProBuilderDefault
f 107/279/73 127/280/73 109/281/73
f 109/281/73 127/280/73 111/284/73
f 111/284/73 127/280/73 113/285/73
f 113/285/73 127/280/73 115/283/73
f 115/283/73 127/280/73 117/282/73
f 117/282/73 127/280/73 119/286/73
f 119/286/73 127/280/73 121/288/73
f 121/288/73 127/280/73 123/289/73
f 123/289/73 127/280/73 125/287/73
f 125/287/73 127/280/73 107/279/73
f 110/283/74 128/280/74 108/282/74
f 112/285/74 128/280/74 110/283/74
f 114/284/74 128/280/74 112/285/74
f 116/281/74 128/280/74 114/284/74
f 118/279/74 128/280/74 116/281/74
f 120/287/74 128/280/74 118/279/74
f 122/289/74 128/280/74 120/287/74
f 124/288/74 128/280/74 122/289/74
f 126/286/74 128/280/74 124/288/74
f 108/282/74 128/280/74 126/286/74
f 110/278/64 108/276/63 107/275/63
f 107/275/63 109/277/64 110/278/64
f 112/278/65 110/276/64 109/275/64
f 109/275/64 111/277/65 112/278/65
f 114/278/66 112/276/65 111/275/65
f 111/275/65 113/277/66 114/278/66
f 116/278/67 114/276/66 113/275/66
f 113/275/66 115/277/67 116/278/67
f 118/278/68 116/276/67 115/275/67
f 115/275/67 117/277/68 118/278/68
f 120/278/69 118/276/68 117/275/68
f 117/275/68 119/277/69 120/278/69
f 122/278/70 120/276/69 119/275/69
f 119/275/69 121/277/70 122/278/70
f 124/278/71 122/276/70 121/275/70
f 121/275/70 123/277/71 124/278/71
f 126/278/72 124/276/71 123/275/71
f 123/275/71 125/277/72 126/278/72
f 108/278/63 126/276/72 125/275/72
f 125/275/72 107/277/63 108/278/63

