# ProBuilder 6.0.5
# https://unity3d.com/unity/features/worldbuilding/probuilder
# 06.06.2025 20:29:15

mtllib ./Display7.mtl
o Display7

g Display7
v 0.25 0.008520126 1.743965
v -0.25 0.008520126 1.743965
v 0.25 5.030805 1.743965
v -0.25 5.030805 1.743965
v -0.25 0.008520126 -1.672258
v -0.25 5.030805 -1.672258
v 0.25 0.008520126 -1.672258
v 0.25 5.030805 -1.672258

vt 0.5 -4.022285
vt 0 -4.022285
vt 0.5 1
vt 0 1
vt 3.416223 -4.022285
vt 3.416223 1
vt 0 -2.416223
vt 0.5 -2.416223

vn 0 -2.220446E-17 1
vn -1 0 0
vn 0 2.220446E-17 -1
vn 1 0 0
vn 0 1 2.220446E-17
vn 0 -1 -2.220446E-17

usemtl ProBuilderDefault
f 3/3/1 4/4/1 2/2/1 1/1/1
f 4/6/2 6/4/2 5/2/2 2/5/2
f 6/3/3 8/4/3 7/2/3 5/1/3
f 8/6/4 3/4/4 1/2/4 7/5/4
f 8/7/5 6/8/5 4/3/5 3/4/5
f 1/3/6 2/4/6 5/7/6 7/8/6

