# ProBuilder 5.0.7
# https://unity3d.com/unity/features/worldbuilding/probuilder
# 31.03.2025 1:50:14

mtllib ./Axis.mtl
o Axis

g Cylinder
v -0.1344739 0.009416901 0.06511572
v -0.1344739 0.2094169 0.06511572
v -0.09447387 0.009416901 0.1343977
v -0.09447387 0.2094169 0.1343977
v -0.01447387 0.009416901 0.1343977
v -0.01447387 0.2094169 0.1343977
v 0.02552612 0.009416901 0.06511571
v 0.02552612 0.2094169 0.06511571
v -0.01447389 0.009416901 -0.004166313
v -0.01447389 0.2094169 -0.004166313
v -0.09447387 0.009416901 -0.004166313
v -0.09447387 0.2094169 -0.004166313
v -0.05447388 0.009416901 0.06511572
v -0.05447388 0.2094169 0.06511572

vt -0.01084509 0.009416901
vt -0.01084509 0.2094169
vt 0.06915491 0.009416901
vt 0.06915491 0.2094169
vt -0.09447387 0.009416901
vt -0.09447387 0.2094169
vt -0.01447387 0.009416901
vt -0.01447387 0.2094169
vt -0.1236288 0.009416901
vt -0.1236288 0.2094169
vt -0.0436288 0.009416901
vt -0.0436288 0.2094169
vt -0.06915493 0.009416901
vt -0.06915493 0.2094169
vt 0.01084508 0.009416901
vt 0.01084508 0.2094169
vt 0.01447389 0.009416901
vt 0.01447389 0.2094169
vt 0.09447387 0.009416901
vt 0.09447387 0.2094169
vt 0.04362881 0.009416901
vt 0.04362881 0.2094169
vt 0.1236288 0.009416901
vt 0.1236288 0.2094169
vt -0.1344739 0.06511572
vt -0.05447388 0.06511572
vt -0.09447387 0.1343977
vt 0.1344739 0.06511572
vt 0.05447388 0.06511572
vt 0.09447387 0.1343977
vt -0.01447387 0.1343977
vt 0.01447387 0.1343977
vt 0.02552612 0.06511571
vt -0.02552612 0.06511571
vt -0.01447389 -0.004166313
vt 0.01447389 -0.004166313
vt -0.09447387 -0.004166313
vt 0.09447387 -0.004166313

vn -1 0 3.441276E-08
vn -0.5 0 0.8660254
vn 0.5000001 0 0.8660254
vn 1 0 -8.603189E-08
vn 0.5 0 -0.8660254
vn -0.5 0 -0.8660254
vn 0 -1 0
vn 0 1 0

usemtl RotorAxis
f 1/25/7 13/26/7 3/27/7
f 3/27/7 13/26/7 5/31/7
f 5/31/7 13/26/7 7/33/7
f 7/33/7 13/26/7 9/35/7
f 9/35/7 13/26/7 11/37/7
f 11/37/7 13/26/7 1/25/7
f 4/30/8 14/29/8 2/28/8
f 6/32/8 14/29/8 4/30/8
f 8/34/8 14/29/8 6/32/8
f 10/36/8 14/29/8 8/34/8
f 12/38/8 14/29/8 10/36/8
f 2/28/8 14/29/8 12/38/8
f 4/4/2 2/2/1 1/1/1
f 1/1/1 3/3/2 4/4/2
f 6/8/3 4/6/2 3/5/2
f 3/5/2 5/7/3 6/8/3
f 8/12/4 6/10/3 5/9/3
f 5/9/3 7/11/4 8/12/4
f 10/16/5 8/14/4 7/13/4
f 7/13/4 9/15/5 10/16/5
f 12/20/6 10/18/5 9/17/5
f 9/17/5 11/19/6 12/20/6
f 2/24/1 12/22/6 11/21/6
f 11/21/6 1/23/1 2/24/1

