# ProBuilder 5.0.7
# https://unity3d.com/unity/features/worldbuilding/probuilder
# 31.03.2025 1:55:07

mtllib ./Blade_Body.mtl
o Blade_Body

g Blade_Body
v 0.1001193 -1.116047 -0.01148932
v -0.09293962 -1.116047 0.03896407
v 0.239317 -0.8878769 0.0740155
v -0.2461552 -0.8878771 -0.04645421
v -0.1001199 -1.116047 0.01148908
v -0.2393159 -0.8878771 -0.07401585
v 0.09293908 -1.116047 -0.03896431
v 0.2461562 -0.8878769 0.04645374
v 0.1479215 -0.2607979 0.06559668
v -0.1571108 -0.260798 -0.03872788
v 0.1571106 -0.2607979 0.03872719
v -0.1479216 -0.260798 -0.06559737
v 0.1092724 0.5026847 0.02954898
v -0.1131877 0.5026846 -0.001422931
v 0.1131888 0.5026847 0.001422407
v -0.1092713 0.5026846 -0.02954945
v 0.07847068 1.788353 0.01419884
v -0.07847073 1.788353 0.01419884
v 0.07847068 1.788353 -0.01419884
v -0.07847073 1.788353 -0.01419884

vt 0.09977116 -0.9849454
vt -0.09977159 -0.9849454
vt 0.2128263 -0.7281048
vt -0.2264111 -0.8379757
vt 0.01419854 -0.9274033
vt -0.0141992 -0.9274033
vt -0.1071842 -0.6664456
vt -0.132121 -0.6730387
vt 0.09293908 -0.03896431
vt -0.1001199 0.01148908
vt 0.1001193 -0.01148932
vt -0.09293962 0.03896407
vt 0.2500986 -0.8873473
vt -0.2500975 -0.8873476
vt 0.1593659 -0.2601157
vt -0.1618134 -0.260729
vt 0.01419757 -0.9140732
vt -0.01420006 -0.9140732
vt 0.0002510625 -0.2808099
vt -0.02804062 -0.2804688
vt 0.1611896 -0.2610951
vt -0.1611895 -0.2610953
vt 0.1129549 0.502693
vt -0.1075576 0.5014857
vt 0.01419596 -0.2714516
vt -0.01420139 -0.2714517
vt 0.03528097 0.4939122
vt 0.007400373 0.4935342
vt 0.1123032 0.5025455
vt -0.1123026 0.5025454
vt 0.07967898 1.788261
vt -0.07576315 1.788076
vt 0.01420121 0.4992912
vt -0.01419672 0.4992912
vt 0.02488516 1.785479
vt -0.003241169 1.785368

vn 0.2246204 -0.4591249 0.8595057
vn -0.005736984 -0.1307429 0.9054624
vn -0.2360943 0.1976391 0.9514191
vn -0.8459441 -0.4852868 0.2210775
vn -0.8238261 -0.524462 0.01106872
vn -0.8017082 -0.5636372 -0.1989401
vn -0.2246205 -0.4591244 -0.859506
vn 0.00573682 -0.1307438 -0.9054627
vn 0.2360941 0.1976368 -0.9514196
vn 0.8459418 -0.4852912 -0.2210767
vn 0.8238239 -0.5244659 -0.01106882
vn 0.8017061 -0.5636406 0.1989391
vn 0 -1 0
vn -0.2407863 -0.02206703 0.9703273
vn -0.2821022 0.006103322 0.9579812
vn -0.3234182 0.03427367 0.9456353
vn 0.9610869 0.1394134 0.2384868
vn 0.9489268 0.1401231 0.2794263
vn 0.9367667 0.1408329 0.3203658
vn -0.9610866 0.1394115 -0.2384891
vn -0.9489269 0.1401212 -0.2794272
vn -0.9367672 0.1408309 -0.3203653
vn 0.2407861 -0.02206705 -0.9703273
vn 0.2821022 0.006103445 -0.9579812
vn 0.3234182 0.03427394 -0.9456352
vn -0.3234789 0.02828122 0.9458126
vn -0.2306303 -0.006073715 0.9677249
vn -0.1377818 -0.04042865 0.9896372
vn 0.9438714 0.07007143 0.3227952
vn 0.9663653 0.06331527 0.2302429
vn 0.9888592 0.05655912 0.1376905
vn -0.9438714 0.07007309 -0.3227951
vn -0.9663651 0.063317 -0.2302434
vn -0.9888589 0.05656091 -0.1376917
vn 0.3234789 0.02828093 -0.9458126
vn 0.2306302 -0.006073876 -0.9677249
vn 0.1377816 -0.04042868 -0.9896372
vn -0.1378895 0.008521411 0.990411
vn -0.06894477 -0.001814195 0.9951686
vn 0 -0.0121498 0.9999262
vn 0.9900448 0.02841013 0.1378556
vn 0.994879 0.02618052 0.06892782
vn 0.9997132 0.02395091 0
vn -0.9900447 0.02840926 -0.1378568
vn -0.9948789 0.0261796 -0.06892838
vn -0.9997132 0.02394995 0
vn 0.1378893 0.008521906 -0.990411
vn 0.06894465 -0.001813744 -0.9951686
vn 0 -0.01214939 -0.9999262

usemtl Blade
f 3/3/2 4/4/3 2/2/2 1/1/1
f 4/7/5 6/8/6 5/6/5 2/5/4
f 6/3/8 8/4/9 7/2/8 5/1/7
f 8/7/11 3/8/12 1/6/11 7/5/10
f 1/11/13 2/12/13 5/10/13 7/9/13
f 9/15/15 10/16/16 4/14/15 3/13/14
f 11/19/18 9/20/19 3/18/18 8/17/17
f 10/19/21 12/20/22 6/18/21 4/17/20
f 12/15/24 11/16/25 8/14/24 6/13/23
f 13/23/27 14/24/28 10/22/27 9/21/26
f 15/27/30 13/28/31 9/26/30 11/25/29
f 14/27/33 16/28/34 12/26/33 10/25/32
f 16/23/36 15/24/37 11/22/36 12/21/35
f 17/31/39 18/32/40 14/30/39 13/29/38
f 19/35/42 17/36/43 13/34/42 15/33/41
f 18/35/45 20/36/46 16/34/45 14/33/44
f 20/31/48 19/32/49 15/30/48 16/29/47

