# ProBuilder 5.0.7
# https://unity3d.com/unity/features/worldbuilding/probuilder
# 31.03.2025 1:55:17

mtllib ./Blade_Tip.mtl
o Blade_Tip

g Blade_Tip
v 0.04413927 2.288353 0.01419884
v -0.04414045 2.288353 0.01419884
v 0.04413927 2.288353 -0.01419884
v -0.04414045 2.288353 -0.01419884
v 0.07847068 1.788353 0.01419884
v -0.07847073 1.788353 0.01419884
v 0.07847068 1.788353 -0.01419884
v -0.07847073 1.788353 -0.01419884

vt -0.04413927 0.01419884
vt 0.04414045 0.01419884
vt -0.04413927 -0.01419884
vt 0.04414045 -0.01419884
vt 0.07847068 1.788353
vt -0.07847073 1.788353
vt 0.04413927 2.288353
vt -0.04414045 2.288353
vt 0.01419884 1.778777
vt -0.01419884 1.778777
vt 0.01419884 2.279954
vt -0.01419884 2.279954

vn 0 1 0
vn 0 0 1
vn 0.997651 0.06850156 0
vn -0.9976512 0.06849932 0
vn 0 0 -1

usemtl Tip
f 3/3/1 4/4/1 2/2/1 1/1/1
f 1/7/2 2/8/2 6/6/2 5/5/2
f 3/11/3 1/12/3 5/10/3 7/9/3
f 2/11/4 4/12/4 8/10/4 6/9/4
f 4/7/5 3/8/5 7/6/5 8/5/5

