# ProBuilder 5.0.7
# https://unity3d.com/unity/features/worldbuilding/probuilder
# 31.03.2025 1:49:03

mtllib ./GondolaPart1.mtl
o GondolaPart1

g Cube_1
v 0.3186578 0.1114025 0.421443
v -0.1591312 0.1114025 0.421443
v 0.3186578 0.7060928 0.5416458
v -0.1591312 0.7060928 0.5416458
v -0.4202367 0 -0.4583542
v -0.4202367 1 -0.4583542
v 0.5797633 0 -0.4583542
v 0.5797633 1 -0.4583542

vt 0.3186578 0.1926906
vt -0.1591312 0.1926906
vt 0.3186578 0.7994074
vt -0.1591312 0.7994074
vt 0.3567936 0.1273781
vt -0.560908 0.01578258
vt 0.4717812 0.7230988
vt -0.560908 1.014053
vt 0.4202367 0
vt -0.5797633 0
vt 0.4202367 1
vt -0.5797633 1
vt 0.604362 0
vt -0.313363 0.1114025
vt 0.604362 1
vt -0.4285981 0.7060928
vt -0.3186578 0.3205616
vt 0.1591312 0.3205616
vt -0.5797633 -0.7217348
vt 0.4202367 -0.7217348
vt 0.5797633 -0.4547234
vt -0.4202367 -0.4547234
vt 0.3186578 0.4320989
vt -0.1591312 0.4320989

vn 0 -0.1981201 0.9801778
vn -0.9549589 -0.05878977 0.2908561
vn -0.9612602 -0.02939488 0.2717459
vn -0.9675615 0 0.2526356
vn 0 0 -1
vn 0.9586719 0 0.2845139
vn 0.9642415 -0.02415651 0.2617687
vn 0.9698111 -0.04831302 0.2390235
vn 0 0.9594202 0.2819805
vn 0 -0.9920785 0.1256199

usemtl Gondola
f 3/3/1 4/4/1 2/2/1 1/1/1
f 4/7/3 6/8/4 5/6/3 2/5/2
f 6/11/5 8/12/5 7/10/5 5/9/5
f 8/15/7 3/16/8 1/14/7 7/13/6
f 8/19/9 6/20/9 4/18/9 3/17/9
f 1/23/10 2/24/10 5/22/10 7/21/10

