# ProBuilder 5.0.7
# https://unity3d.com/unity/features/worldbuilding/probuilder
# 31.03.2025 1:53:31

mtllib ./Holder.mtl
o Holder

g Prism
v 0.1 -0.085 -0.1
v -0.1 -0.085 -0.1
v 0 0.085 -0.1
v -0.1 -0.085 0.1
v 0 0.085 0.1
v 0.1 -0.085 0.1

vt -0.1 -0.085
vt 0.1 -0.085
vt 0 0.085
vt -0.1 -0.1239664
vt 0.1 -0.1239664
vt -0.1 0.07326441
vt 0.1 0.07326441
vt 0.1 -0.1
vt -0.1 -0.1
vt 0.1 0.1
vt -0.1 0.1

vn 0 0 -1
vn -0.8619342 0.5070201 0
vn 0 0 1
vn 0.8619342 0.5070201 0
vn 0 -1 0

usemtl RotorAxis
f 1/1/1 2/2/1 3/3/1
f 4/1/3 6/2/3 5/3/3
f 3/6/2 2/4/2 4/5/2
f 4/5/2 5/7/2 3/6/2
f 5/6/4 6/4/4 1/5/4
f 1/5/4 3/7/4 5/6/4
f 4/11/5 2/9/5 1/8/5
f 1/8/5 6/10/5 4/11/5

