# Blender 4.3.2
# www.blender.org
o Box
v 0.700000 0.002199 0.700000
v -0.700000 0.002199 0.700000
v 0.700000 2.002046 0.700000
v -0.700000 2.002046 0.700000
v -0.700000 0.002199 -0.700000
v -0.700000 2.002046 -0.700000
v 0.700000 0.002199 -0.700000
v 0.700000 2.002046 -0.700000
v 0.644531 0.449526 0.727735
v -0.644531 0.449526 0.727735
v 0.644531 1.942615 0.727735
v -0.644531 1.942615 0.727735
v -0.644531 0.449526 0.678807
v -0.644531 1.942615 0.678806
v 0.644531 0.449526 0.678807
v 0.644531 1.942615 0.678806
v 0.200758 1.915600 -0.682362
v 0.162790 1.865878 -0.697909
v 0.200758 1.915600 -0.699046
v 0.200758 1.865878 -0.730485
v 0.620587 1.865878 -0.697909
v 0.582619 1.915600 -0.682362
v 0.582619 1.865878 -0.730485
v 0.582619 1.915600 -0.699046
v 0.200758 1.855600 -0.682362
v 0.162790 1.805878 -0.697909
v 0.200758 1.855600 -0.699046
v 0.200758 1.805878 -0.730485
v 0.620587 1.805878 -0.697909
v 0.582619 1.855600 -0.682362
v 0.582619 1.805878 -0.730485
v 0.582619 1.855600 -0.699046
v 0.200758 1.795600 -0.682362
v 0.162790 1.745878 -0.697909
v 0.200758 1.795600 -0.699046
v 0.200758 1.745878 -0.730485
v 0.620587 1.745878 -0.697909
v 0.582619 1.795600 -0.682362
v 0.582619 1.745878 -0.730485
v 0.582619 1.795600 -0.699046
v 0.200758 1.735600 -0.682362
v 0.162790 1.685878 -0.697909
v 0.200758 1.735600 -0.699046
v 0.200758 1.685878 -0.730485
v 0.620587 1.685878 -0.697909
v 0.582619 1.735600 -0.682362
v 0.582619 1.685878 -0.730485
v 0.582619 1.735600 -0.699046
v 0.200758 1.675600 -0.682362
v 0.162790 1.625878 -0.697909
v 0.200758 1.675600 -0.699046
v 0.200758 1.625878 -0.730485
v 0.620587 1.625878 -0.697909
v 0.582619 1.675600 -0.682362
v 0.582619 1.625878 -0.730485
v 0.582619 1.675600 -0.699046
v 0.200758 1.615600 -0.682362
v 0.162790 1.565878 -0.697909
v 0.200758 1.615600 -0.699046
v 0.200758 1.565878 -0.730485
v 0.620587 1.565878 -0.697909
v 0.582619 1.615600 -0.682362
v 0.582619 1.565878 -0.730485
v 0.582619 1.615600 -0.699046
vn -0.0000 -0.0000 1.0000
vn -1.0000 -0.0000 -0.0000
vn -0.0000 -0.0000 -1.0000
vn 1.0000 -0.0000 -0.0000
vn -0.0000 1.0000 -0.0000
vn -0.0000 -1.0000 -0.0000
vn -0.7430 0.5590 -0.3681
vn -0.5871 0.4327 -0.6841
vn -0.7948 0.6069 -0.0000
vn 0.8731 0.3391 -0.3504
vn 1.0000 -0.0001 0.0001
vn 0.8731 0.3391 -0.3503
vn 0.5249 0.5919 -0.6116
vn -0.0000 0.5344 -0.8452
vn -0.0000 -0.2984 0.9544
vt 1.400000 1.000000
vt 0.000000 1.000000
vt 0.000000 -0.999847
vt 1.400000 -0.999847
vt 0.000000 -0.400000
vt 1.400000 -0.400000
vt 1.289062 1.000000
vt 0.000000 -0.659107
vt 1.289062 -0.659107
vt 0.048928 1.000000
vt 0.048928 -0.659107
vt 0.000000 0.951072
vt 1.289062 0.951072
vt 0.062560 0.968561
vt 0.023043 1.000000
vt 0.000000 0.967424
vt 0.062560 0.951877
vt 0.069195 0.993709
vt 0.011603 1.000000
vt 0.000000 0.993709
vt 0.046540 0.949105
vt 0.381861 1.000000
vt 0.000000 0.983316
vt 0.381861 0.983316
vt 0.000000 0.618139
vt 0.058827 0.618139
vt 0.058827 1.000000
vt 0.052095 0.962032
vt 0.000000 0.542204
vt 0.052095 0.580171
s 1
g Box_Box
f 3/1/1 4/2/1 2/3/1 1/4/1
f 4/1/2 6/2/2 5/3/2 2/4/2
f 6/1/3 8/2/3 7/3/3 5/4/3
f 8/1/4 3/2/4 1/3/4 7/4/4
f 8/5/5 6/6/5 4/1/5 3/2/5
f 1/1/6 2/2/6 5/5/6 7/6/6
f 11/7/1 12/2/1 10/8/1 9/9/1
f 12/10/2 14/2/2 13/8/2 10/11/2
f 14/7/3 16/2/3 15/8/3 13/9/3
f 16/10/4 11/2/4 9/8/4 15/11/4
f 16/12/5 14/13/5 12/7/5 11/2/5
f 9/7/6 10/2/6 13/12/6 15/13/6
f 19/14/7 20/15/8 18/16/7 17/17/9
f 23/18/10 24/19/11 22/20/12 21/21/13
f 24/22/5 19/2/5 17/23/5 22/24/5
f 24/25/14 23/26/14 20/27/14 19/2/14
f 17/28/15 18/2/15 21/29/15 22/30/15
f 27/14/7 28/15/8 26/16/7 25/17/9
f 31/18/10 32/19/11 30/20/12 29/21/13
f 32/22/5 27/2/5 25/23/5 30/24/5
f 32/25/14 31/26/14 28/27/14 27/2/14
f 25/28/15 26/2/15 29/29/15 30/30/15
f 35/14/7 36/15/8 34/16/7 33/17/9
f 39/18/10 40/19/11 38/20/12 37/21/13
f 40/22/5 35/2/5 33/23/5 38/24/5
f 40/25/14 39/26/14 36/27/14 35/2/14
f 33/28/15 34/2/15 37/29/15 38/30/15
f 43/14/7 44/15/8 42/16/7 41/17/9
f 47/18/10 48/19/11 46/20/12 45/21/13
f 48/22/5 43/2/5 41/23/5 46/24/5
f 48/25/14 47/26/14 44/27/14 43/2/14
f 41/28/15 42/2/15 45/29/15 46/30/15
f 51/14/7 52/15/8 50/16/7 49/17/9
f 55/18/10 56/19/11 54/20/12 53/21/13
f 56/22/5 51/2/5 49/23/5 54/24/5
f 56/25/14 55/26/14 52/27/14 51/2/14
f 49/28/15 50/2/15 53/29/15 54/30/15
f 59/14/7 60/15/8 58/16/7 57/17/9
f 63/18/10 64/19/11 62/20/12 61/21/13
f 64/22/5 59/2/5 57/23/5 62/24/5
f 64/25/14 63/26/14 60/27/14 59/2/14
f 57/28/15 58/2/15 61/29/15 62/30/15
o Arrow
v -0.310273 1.445687 0.732000
v -0.594706 1.445687 0.732000
v -0.310273 1.872335 0.732000
v -0.594706 1.872335 0.732000
vn -0.0000 -0.0000 1.0000
vt 1.000000 1.000000
vt 0.000000 1.000000
vt 0.000000 0.000000
vt 1.000000 0.000000
s 1
g Arrow_Arrow
f 67/31/16 68/32/16 66/33/16 65/34/16
o Darker
v 0.595571 1.297706 0.697084
v 0.596331 1.217709 0.697084
v 0.595571 1.297706 0.734022
v 0.596331 1.217709 0.734022
v 0.538280 1.285743 0.734022
v 0.538280 1.285743 0.697084
v 0.569596 1.212127 0.734022
v 0.569596 1.212127 0.697084
v 0.489928 1.252766 0.734022
v 0.489928 1.252766 0.697084
v 0.547031 1.196738 0.734022
v 0.547031 1.196738 0.697084
v 0.457875 1.203796 0.734022
v 0.457875 1.203796 0.697084
v 0.532073 1.173885 0.734023
v 0.532073 1.173885 0.697084
v 0.447003 1.146287 0.734023
v 0.447003 1.146287 0.697084
v 0.527000 1.147048 0.734023
v 0.527000 1.147048 0.697084
v 0.458966 1.088996 0.734023
v 0.458966 1.088996 0.697084
v 0.532583 1.120311 0.734023
v 0.532583 1.120311 0.697084
v 0.491943 1.040644 0.734023
v 0.491943 1.040644 0.697084
v 0.547972 1.097747 0.734023
v 0.547972 1.097747 0.697084
v 0.540914 1.008592 0.734023
v 0.540914 1.008592 0.697084
v 0.570825 1.082789 0.734023
v 0.570825 1.082789 0.697084
v 0.598422 0.997719 0.734023
v 0.598422 0.997719 0.697084
v 0.597662 1.077716 0.734023
v 0.597662 1.077716 0.697084
v 0.538280 1.285743 0.734022
v 0.595571 1.297706 0.734022
v 0.569596 1.212127 0.734022
v 0.596331 1.217709 0.734022
v 0.489928 1.252766 0.734022
v 0.547031 1.196738 0.734022
v 0.457875 1.203796 0.734022
v 0.532073 1.173885 0.734023
v 0.447003 1.146287 0.734023
v 0.527000 1.147048 0.734023
v 0.458966 1.088996 0.734023
v 0.532583 1.120311 0.734023
v 0.491943 1.040644 0.734023
v 0.547972 1.097747 0.734023
v 0.540914 1.008592 0.734023
v 0.570825 1.082789 0.734023
v 0.598422 0.997719 0.734023
v 0.597662 1.077716 0.734023
vn 1.0000 0.0095 -0.0000
vn -0.2044 0.9789 -0.0000
vn -0.3914 0.9202 -0.0000
vn 0.3914 -0.9202 -0.0000
vn 0.2044 -0.9789 -0.0000
vn -0.7138 0.7004 -0.0000
vn 0.7138 -0.7004 -0.0000
vn -0.9275 0.3739 -0.0000
vn 0.9275 -0.3739 -0.0000
vn -1.0000 -0.0095 -0.0000
vn -0.9202 -0.3914 -0.0000
vn 0.9202 0.3914 -0.0000
vn -0.7004 -0.7138 -0.0000
vn 0.7004 0.7138 -0.0000
vn -0.3739 -0.9275 -0.0000
vn 0.5477 0.8367 -0.0000
vn -0.1858 -0.9826 -0.0000
vn 0.1857 0.9826 -0.0000
vn -0.0000 -0.0000 -1.0000
vn -0.0000 -0.0000 1.0000
vt 0.150000 -0.054877
vt 0.070000 -0.054877
vt 0.070000 -0.091816
vt 0.150000 -0.091816
vt 0.091816 -0.102822
vt 0.091816 -0.044295
vt 0.054877 -0.044295
vt 0.054877 -0.102822
vt -0.091816 -0.059903
vt -0.091816 -0.087215
vt -0.054877 -0.087215
vt -0.054877 -0.059903
vt 0.091816 -0.091624
vt 0.091816 -0.033097
vt 0.054877 -0.033097
vt 0.054877 -0.091624
vt -0.091816 -0.048704
vt -0.091816 -0.076017
vt -0.054877 -0.076017
vt -0.054877 -0.048704
vt -0.070931 -0.091816
vt -0.012404 -0.091816
vt -0.012404 -0.054877
vt -0.070931 -0.054877
vt 0.028011 -0.091816
vt 0.055324 -0.091816
vt 0.055324 -0.054877
vt 0.028011 -0.054877
vt -0.043895 -0.091816
vt 0.014632 -0.091816
vt 0.014632 -0.054877
vt -0.043895 -0.054877
vt 0.000975 -0.091816
vt 0.000975 -0.054877
vt -0.014632 -0.091816
vt 0.043895 -0.091816
vt 0.043895 -0.054877
vt -0.014632 -0.054877
vt -0.028288 -0.091816
vt -0.000975 -0.091816
vt -0.000975 -0.054877
vt -0.028288 -0.054877
vt 0.012404 -0.091816
vt 0.070931 -0.091816
vt 0.070931 -0.054877
vt 0.012404 -0.054877
vt -0.055324 -0.091816
vt -0.055324 -0.054877
vt -0.091816 -0.033097
vt -0.091816 -0.091624
vt -0.054877 -0.091624
vt -0.054877 -0.033097
vt 0.091816 -0.076017
vt 0.091816 -0.048704
vt 0.054877 -0.048704
vt 0.054877 -0.076017
vt -0.091816 -0.044295
vt -0.091816 -0.102822
vt -0.054877 -0.102822
vt -0.054877 -0.044295
vt 0.091816 -0.087215
vt 0.091816 -0.059903
vt 0.054877 -0.059903
vt 0.054877 -0.087215
vt -0.070000 -0.054877
vt -0.150000 -0.054877
vt -0.150000 -0.091816
vt -0.070000 -0.091816
vt -0.070000 -0.075000
vt -0.064672 -0.048212
vt -0.138582 -0.017597
vt -0.150000 -0.075000
vt -0.049497 -0.025503
vt -0.106066 0.031066
vt -0.026788 -0.010328
vt -0.057403 0.063582
vt 0.000000 -0.005000
vt 0.000000 0.075000
vt 0.026788 -0.010328
vt 0.057403 0.063582
vt 0.049497 -0.025503
vt 0.106066 0.031066
vt 0.064672 -0.048212
vt 0.138582 -0.017597
vt 0.070000 -0.075000
vt 0.150000 -0.075000
vt 0.070000 -0.075000
vt 0.150000 -0.075000
vt 0.026788 -0.010328
vt 0.057403 0.063582
vt -0.000000 -0.005000
vt -0.000000 0.075000
vt -0.026788 -0.010328
vt -0.057403 0.063582
vt -0.070000 -0.075000
vt -0.150000 -0.075000
s 1
g Darker_Black
f 71/35/17 72/36/17 70/37/17 69/38/17
f 69/39/18 74/40/19 73/41/19 71/42/18
f 76/43/20 70/44/21 72/45/21 75/46/20
f 74/47/19 78/48/22 77/49/22 73/50/19
f 80/51/23 76/52/20 75/53/20 79/54/23
f 78/55/22 82/56/24 81/57/24 77/58/22
f 84/59/25 80/60/23 79/61/23 83/62/25
f 82/63/24 86/64/26 85/65/26 81/66/24
f 88/67/17 84/59/25 83/62/25 87/68/17
f 86/69/26 90/70/27 89/71/27 85/72/26
f 92/73/28 88/74/17 87/75/17 91/76/28
f 90/77/27 94/78/29 93/79/29 89/80/27
f 96/81/30 92/73/28 91/76/28 95/82/30
f 94/83/29 98/84/31 97/85/31 93/86/29
f 100/87/32 96/88/30 95/89/30 99/90/32
f 98/91/31 102/92/33 101/93/33 97/94/31
f 104/95/34 100/96/34 99/97/34 103/98/34
f 103/99/17 101/100/17 102/101/17 104/102/17
f 70/103/35 76/104/35 74/105/35 69/106/35
f 76/104/35 80/107/35 78/108/35 74/105/35
f 80/107/35 84/109/35 82/110/35 78/108/35
f 84/109/35 88/111/35 86/112/35 82/110/35
f 88/111/35 92/113/35 90/114/35 86/112/35
f 92/113/35 96/115/35 94/116/35 90/114/35
f 96/115/35 100/117/35 98/118/35 94/116/35
f 100/117/35 104/119/35 102/120/35 98/118/35
g Darker_Darker
f 107/117/36 108/121/36 106/122/36 105/118/36
f 110/115/36 107/117/36 105/118/36 109/116/36
f 112/123/36 110/115/36 109/116/36 111/124/36
f 114/125/36 112/123/36 111/124/36 113/126/36
f 116/127/36 114/125/36 113/126/36 115/128/36
f 118/107/36 116/127/36 115/128/36 117/108/36
f 120/104/36 118/107/36 117/108/36 119/105/36
f 122/129/36 120/104/36 119/105/36 121/130/36
o Handle
v 0.589902 1.286871 0.729595
v 0.591409 1.128270 0.729595
v 0.589902 1.286871 0.748405
v 0.591409 1.128270 0.748405
v 0.560263 1.127974 0.729595
v 0.560263 1.127974 0.748405
v 0.558756 1.286575 0.729595
v 0.558756 1.286575 0.748405
vn 1.0000 0.0095 -0.0000
vn 0.0095 -1.0000 -0.0000
vn -1.0000 -0.0095 -0.0000
vn -0.0095 1.0000 -0.0000
vn -0.0000 -0.0000 1.0000
vn -0.0000 -0.0000 -1.0000
vt 0.158608 1.000000
vt 0.000000 1.000000
vt 0.000000 0.981189
vt 0.158608 0.981189
vt 0.031148 1.000000
vt 0.031148 0.981189
vt 0.000000 0.968852
vt 0.158608 0.968852
s 1
g Handle_Handle
f 125/131/37 126/132/37 124/133/37 123/134/37
f 126/135/38 128/132/38 127/133/38 124/136/38
f 128/131/39 130/132/39 129/133/39 127/134/39
f 130/135/40 125/132/40 123/133/40 129/136/40
f 130/137/41 128/138/41 126/131/41 125/132/41
f 123/131/42 124/132/42 127/137/42 129/138/42
